<mxfile host="65bd71144e">
    <diagram id="RzKq9KF5NWwgLoKb3BY6" name="Page-1">
        <mxGraphModel dx="1835" dy="1436" grid="1" gridSize="10" guides="1" tooltips="1" connect="1" arrows="1" fold="1" page="1" pageScale="1" pageWidth="1654" pageHeight="1169" math="0" shadow="0">
            <root>
                <mxCell id="0"/>
                <mxCell id="1" parent="0"/>
                <mxCell id="46" value="Consulter le Pokedex" style="shape=umlFrame;whiteSpace=wrap;html=1;width=120;height=30;boundedLbl=1;verticalAlign=middle;align=left;spacingLeft=5;" vertex="1" parent="1">
                    <mxGeometry x="392" y="354" width="870" height="460" as="geometry"/>
                </mxCell>
                <mxCell id="2" value="&lt;u&gt;: utilisateur&lt;/u&gt;" style="shape=umlActor;verticalLabelPosition=bottom;verticalAlign=top;html=1;" vertex="1" parent="1">
                    <mxGeometry x="456" y="416" width="30" height="60" as="geometry"/>
                </mxCell>
                <mxCell id="3" value="&amp;lt;&amp;lt;boundary&amp;gt;&amp;gt;&lt;br&gt;LoaderPage" style="shape=umlLifeline;perimeter=lifelinePerimeter;whiteSpace=wrap;html=1;container=1;collapsible=0;recursiveResize=0;outlineConnect=0;" vertex="1" parent="1">
                    <mxGeometry x="542" y="416" width="100" height="338" as="geometry"/>
                </mxCell>
                <mxCell id="4" value="" style="html=1;points=[];perimeter=orthogonalPerimeter;" vertex="1" parent="3">
                    <mxGeometry x="45" y="120" width="10" height="40" as="geometry"/>
                </mxCell>
                <mxCell id="50" value="" style="endArrow=classic;html=1;entryX=-0.053;entryY=-0.005;entryDx=0;entryDy=0;entryPerimeter=0;" edge="1" parent="3" target="49">
                    <mxGeometry width="50" height="50" relative="1" as="geometry">
                        <mxPoint x="55" y="160" as="sourcePoint"/>
                        <mxPoint x="175.4999999999999" y="160" as="targetPoint"/>
                    </mxGeometry>
                </mxCell>
                <mxCell id="51" value="2 : getPokemons()" style="edgeLabel;html=1;align=center;verticalAlign=middle;resizable=0;points=[];" vertex="1" connectable="0" parent="50">
                    <mxGeometry x="-0.5904" y="-1" relative="1" as="geometry">
                        <mxPoint x="31" y="-9" as="offset"/>
                    </mxGeometry>
                </mxCell>
                <mxCell id="7" value="&amp;lt;&amp;lt;boundary&amp;gt;&amp;gt;&lt;br&gt;FichePokemon" style="shape=umlLifeline;perimeter=lifelinePerimeter;whiteSpace=wrap;html=1;container=1;collapsible=0;recursiveResize=0;outlineConnect=0;" vertex="1" parent="1">
                    <mxGeometry x="1116" y="416" width="100" height="338" as="geometry"/>
                </mxCell>
                <mxCell id="8" value="" style="html=1;points=[];perimeter=orthogonalPerimeter;" vertex="1" parent="7">
                    <mxGeometry x="45" y="240" width="10" height="70" as="geometry"/>
                </mxCell>
                <mxCell id="12" value="" style="endArrow=none;dashed=1;html=1;" edge="1" parent="1">
                    <mxGeometry width="50" height="50" relative="1" as="geometry">
                        <mxPoint x="471" y="754" as="sourcePoint"/>
                        <mxPoint x="471" y="506" as="targetPoint"/>
                    </mxGeometry>
                </mxCell>
                <mxCell id="13" value="" style="endArrow=classic;html=1;entryX=-0.009;entryY=0;entryDx=0;entryDy=0;entryPerimeter=0;" edge="1" parent="1" target="4">
                    <mxGeometry width="50" height="50" relative="1" as="geometry">
                        <mxPoint x="471" y="536" as="sourcePoint"/>
                        <mxPoint x="572" y="536" as="targetPoint"/>
                    </mxGeometry>
                </mxCell>
                <mxCell id="14" value="1 : lance l'application&amp;nbsp;" style="edgeLabel;html=1;align=center;verticalAlign=middle;resizable=0;points=[];" vertex="1" connectable="0" parent="13">
                    <mxGeometry x="-0.5904" y="-1" relative="1" as="geometry">
                        <mxPoint x="30" y="-9" as="offset"/>
                    </mxGeometry>
                </mxCell>
                <mxCell id="15" value="&amp;lt;&amp;lt;boundary&amp;gt;&amp;gt;&lt;br&gt;Pokedex" style="shape=umlLifeline;perimeter=lifelinePerimeter;whiteSpace=wrap;html=1;container=1;collapsible=0;recursiveResize=0;outlineConnect=0;" vertex="1" parent="1">
                    <mxGeometry x="885" y="416" width="100" height="338" as="geometry"/>
                </mxCell>
                <mxCell id="16" value="" style="html=1;points=[];perimeter=orthogonalPerimeter;" vertex="1" parent="15">
                    <mxGeometry x="45" y="200" width="10" height="40" as="geometry"/>
                </mxCell>
                <mxCell id="25" value="" style="endArrow=classic;html=1;exitX=1.031;exitY=0.998;exitDx=0;exitDy=0;exitPerimeter=0;entryX=-0.006;entryY=0.019;entryDx=0;entryDy=0;entryPerimeter=0;" edge="1" parent="1" source="16" target="8">
                    <mxGeometry width="50" height="50" relative="1" as="geometry">
                        <mxPoint x="841" y="676" as="sourcePoint"/>
                        <mxPoint x="1142" y="656" as="targetPoint"/>
                    </mxGeometry>
                </mxCell>
                <mxCell id="26" value="4 : setSelectedId(id) +&lt;br&gt;setAffichePokemon(!affichePokemon)&amp;nbsp;&lt;span style=&quot;color: rgba(0 , 0 , 0 , 0) ; font-family: monospace ; font-size: 0px&quot;&gt;%3CmxGraphModel%3E%3Croot%3E%3CmxCell%20id%3D%220%22%2F%3E%3CmxCell%20id%3D%221%22%20parent%3D%220%22%2F%3E%3CmxCell%20id%3D%222%22%20value%3D%22%22%20style%3D%22endArrow%3Dclassic%3Bhtml%3D1%3B%22%20edge%3D%221%22%20parent%3D%221%22%3E%3CmxGeometry%20width%3D%2250%22%20height%3D%2250%22%20relative%3D%221%22%20as%3D%22geometry%22%3E%3CmxPoint%20x%3D%22315%22%20y%3D%22240%22%20as%3D%22sourcePoint%22%2F%3E%3CmxPoint%20x%3D%22484.5000000000002%22%20y%3D%22240%22%20as%3D%22targetPoint%22%2F%3E%3C%2FmxGeometry%3E%3C%2FmxCell%3E%3CmxCell%20id%3D%223%22%20value%3D%22%26lt%3Bfont%20style%3D%26quot%3Bfont-size%3A%2011px%26quot%3B%26gt%3B2%20%3A%26amp%3Bnbsp%3B%26lt%3Bspan%20style%3D%26quot%3Bbackground-color%3A%20rgb(30%20%2C%2030%20%2C%2030)%20%3B%20color%3A%20rgb(212%20%2C%20212%20%2C%20212)%20%3B%20font-family%3A%20%26amp%3B%2334%3Bconsolas%26amp%3B%2334%3B%20%2C%20%26amp%3B%2334%3Bcourier%20new%26amp%3B%2334%3B%20%2C%20monospace%26quot%3B%26gt%3BtoggleModals(%26lt%3B%2Fspan%26gt%3B%26lt%3Bspan%20style%3D%26quot%3Bfont-family%3A%20%26amp%3B%2334%3Bconsolas%26amp%3B%2334%3B%20%2C%20%26amp%3B%2334%3Bcourier%20new%26amp%3B%2334%3B%20%2C%20monospace%20%3B%20color%3A%20rgb(206%20%2C%20145%20%2C%20120)%26quot%3B%26gt%3B%26quot%3BsignUp%26quot%3B%26lt%3B%2Fspan%26gt%3B%26lt%3Bspan%20style%3D%26quot%3Bbackground-color%3A%20rgb(30%20%2C%2030%20%2C%2030)%20%3B%20color%3A%20rgb(212%20%2C%20212%20%2C%20212)%20%3B%20font-family%3A%20%26amp%3B%2334%3Bconsolas%26amp%3B%2334%3B%20%2C%20%26amp%3B%2334%3Bcourier%20new%26amp%3B%2334%3B%20%2C%20monospace%26quot%3B%26gt%3B)%26lt%3B%2Fspan%26gt%3B%26lt%3B%2Ffont%26gt%3B%22%20style%3D%22edgeLabel%3Bhtml%3D1%3Balign%3Dcenter%3BverticalAlign%3Dmiddle%3Bresizable%3D0%3Bpoints%3D%5B%5D%3B%22%20vertex%3D%221%22%20connectable%3D%220%22%20parent%3D%222%22%3E%3CmxGeometry%20x%3D%22-0.5904%22%20y%3D%22-1%22%20relative%3D%221%22%20as%3D%22geometry%22%3E%3CmxPoint%20x%3D%2245%22%20y%3D%22-9%22%20as%3D%22offset%22%2F%3E%3C%2FmxGeometry%3E%3C%2FmxCell%3E%3C%2Froot%3E%3C%2FmxGraphModel%3E&lt;/span&gt;" style="edgeLabel;html=1;align=center;verticalAlign=middle;resizable=0;points=[];" vertex="1" connectable="0" parent="25">
                    <mxGeometry x="-0.5904" y="-1" relative="1" as="geometry">
                        <mxPoint x="60" y="-17" as="offset"/>
                    </mxGeometry>
                </mxCell>
                <mxCell id="44" value="" style="endArrow=classic;html=1;fontSize=11;exitX=0.017;exitY=0.993;exitDx=0;exitDy=0;exitPerimeter=0;" edge="1" parent="1" source="11">
                    <mxGeometry width="50" height="50" relative="1" as="geometry">
                        <mxPoint x="1304" y="897" as="sourcePoint"/>
                        <mxPoint x="1098.8333333333333" y="891.5450000000001" as="targetPoint"/>
                    </mxGeometry>
                </mxCell>
                <mxCell id="45" value="11: navigate(&quot;/private/private-home&quot;)" style="edgeLabel;html=1;align=center;verticalAlign=middle;resizable=0;points=[];fontSize=11;" vertex="1" connectable="0" parent="44">
                    <mxGeometry x="0.3314" y="-1" relative="1" as="geometry">
                        <mxPoint x="54" y="-11" as="offset"/>
                    </mxGeometry>
                </mxCell>
                <mxCell id="47" value="&lt;font style=&quot;font-size: 11px&quot;&gt;quand la liste est chargÃ©e&amp;nbsp;&lt;/font&gt;" style="edgeLabel;html=1;align=center;verticalAlign=middle;resizable=0;points=[];" vertex="1" connectable="0" parent="1">
                    <mxGeometry x="822.0015384615385" y="624" as="geometry"/>
                </mxCell>
                <mxCell id="48" value="&amp;lt;&amp;lt;Control&amp;gt;&amp;gt;&lt;br&gt;PokeAPI" style="shape=umlLifeline;perimeter=lifelinePerimeter;whiteSpace=wrap;html=1;container=1;collapsible=0;recursiveResize=0;outlineConnect=0;" vertex="1" parent="1">
                    <mxGeometry x="692" y="416" width="100" height="338" as="geometry"/>
                </mxCell>
                <mxCell id="49" value="" style="html=1;points=[];perimeter=orthogonalPerimeter;" vertex="1" parent="48">
                    <mxGeometry x="45" y="160" width="10" height="40" as="geometry"/>
                </mxCell>
                <mxCell id="19" value="" style="endArrow=classic;html=1;exitX=0.978;exitY=0.997;exitDx=0;exitDy=0;exitPerimeter=0;entryX=0.001;entryY=0.002;entryDx=0;entryDy=0;entryPerimeter=0;" edge="1" parent="1" source="49" target="16">
                    <mxGeometry width="50" height="50" relative="1" as="geometry">
                        <mxPoint x="752" y="616" as="sourcePoint"/>
                        <mxPoint x="896.25" y="616" as="targetPoint"/>
                    </mxGeometry>
                </mxCell>
                <mxCell id="20" value="&lt;font style=&quot;font-size: 11px&quot;&gt;3 : setLoading(true)&amp;nbsp;&lt;/font&gt;" style="edgeLabel;html=1;align=center;verticalAlign=middle;resizable=0;points=[];" vertex="1" connectable="0" parent="19">
                    <mxGeometry x="-0.5904" y="-1" relative="1" as="geometry">
                        <mxPoint x="45" y="-9" as="offset"/>
                    </mxGeometry>
                </mxCell>
                <mxCell id="55" value="" style="endArrow=classic;html=1;exitX=-0.002;exitY=1.007;exitDx=0;exitDy=0;exitPerimeter=0;" edge="1" parent="1" source="8" target="15">
                    <mxGeometry width="50" height="50" relative="1" as="geometry">
                        <mxPoint x="1032" y="754" as="sourcePoint"/>
                        <mxPoint x="1082" y="704" as="targetPoint"/>
                    </mxGeometry>
                </mxCell>
                <mxCell id="56" value="5 : setAffichePokemon(!affichePokemon)&amp;nbsp;" style="edgeLabel;html=1;align=center;verticalAlign=middle;resizable=0;points=[];" vertex="1" connectable="0" parent="55">
                    <mxGeometry x="0.2647" y="-2" relative="1" as="geometry">
                        <mxPoint x="34" y="-10" as="offset"/>
                    </mxGeometry>
                </mxCell>
            </root>
        </mxGraphModel>
    </diagram>
</mxfile>